<svg width="154" height="154" viewBox="0 0 154 154" fill="none" xmlns="http://www.w3.org/2000/svg">
<g opacity="0.2" clip-path="url(#clip0_6679:11855)">
<circle cx="2.5" cy="2.5" r="2.5" fill="#ADA59C"/>
<circle cx="13.5" cy="2.5" r="2.5" fill="#ADA59C"/>
<circle cx="24.5" cy="2.5" r="2.5" fill="#ADA59C"/>
<circle cx="35.5" cy="2.5" r="2.5" fill="#ADA59C"/>
<circle cx="46.5" cy="2.5" r="2.5" fill="#ADA59C"/>
<circle cx="57.5" cy="2.5" r="2.5" fill="#ADA59C"/>
<circle cx="68.5" cy="2.5" r="2.5" fill="#ADA59C"/>
<circle cx="79.5" cy="2.5" r="2.5" fill="#ADA59C"/>
<circle cx="90.5" cy="2.5" r="2.5" fill="#ADA59C"/>
<circle cx="101.5" cy="2.5" r="2.5" fill="#ADA59C"/>
<circle cx="112.5" cy="2.5" r="2.5" fill="#ADA59C"/>
<circle cx="123.5" cy="2.5" r="2.5" fill="#ADA59C"/>
<circle cx="134.5" cy="2.5" r="2.5" fill="#ADA59C"/>
<circle cx="145.5" cy="2.5" r="2.5" fill="#ADA59C"/>
<circle cx="2.5" cy="13.5" r="2.5" fill="#ADA59C"/>
<circle cx="13.5" cy="13.5" r="2.5" fill="#ADA59C"/>
<circle cx="24.5" cy="13.5" r="2.5" fill="#ADA59C"/>
<circle cx="35.5" cy="13.5" r="2.5" fill="#ADA59C"/>
<circle cx="46.5" cy="13.5" r="2.5" fill="#ADA59C"/>
<circle cx="57.5" cy="13.5" r="2.5" fill="#ADA59C"/>
<circle cx="68.5" cy="13.5" r="2.5" fill="#ADA59C"/>
<circle cx="79.5" cy="13.5" r="2.5" fill="#ADA59C"/>
<circle cx="90.5" cy="13.5" r="2.5" fill="#ADA59C"/>
<circle cx="101.5" cy="13.5" r="2.5" fill="#ADA59C"/>
<circle cx="112.5" cy="13.5" r="2.5" fill="#ADA59C"/>
<circle cx="123.5" cy="13.5" r="2.5" fill="#ADA59C"/>
<circle cx="134.5" cy="13.5" r="2.5" fill="#ADA59C"/>
<circle cx="145.5" cy="13.5" r="2.5" fill="#ADA59C"/>
<circle cx="2.5" cy="24.5" r="2.5" fill="#ADA59C"/>
<circle cx="13.5" cy="24.5" r="2.5" fill="#ADA59C"/>
<circle cx="24.5" cy="24.5" r="2.5" fill="#ADA59C"/>
<circle cx="35.5" cy="24.5" r="2.5" fill="#ADA59C"/>
<circle cx="46.5" cy="24.5" r="2.5" fill="#ADA59C"/>
<circle cx="57.5" cy="24.5" r="2.5" fill="#ADA59C"/>
<circle cx="68.5" cy="24.5" r="2.5" fill="#ADA59C"/>
<circle cx="79.5" cy="24.5" r="2.5" fill="#ADA59C"/>
<circle cx="90.5" cy="24.5" r="2.5" fill="#ADA59C"/>
<circle cx="101.5" cy="24.5" r="2.5" fill="#ADA59C"/>
<circle cx="112.5" cy="24.5" r="2.5" fill="#ADA59C"/>
<circle cx="123.5" cy="24.5" r="2.5" fill="#ADA59C"/>
<circle cx="134.5" cy="24.5" r="2.5" fill="#ADA59C"/>
<circle cx="145.5" cy="24.5" r="2.5" fill="#ADA59C"/>
<circle cx="2.5" cy="35.5" r="2.5" fill="#ADA59C"/>
<circle cx="13.5" cy="35.5" r="2.5" fill="#ADA59C"/>
<circle cx="24.5" cy="35.5" r="2.5" fill="#ADA59C"/>
<circle cx="35.5" cy="35.5" r="2.5" fill="#ADA59C"/>
<circle cx="46.5" cy="35.5" r="2.5" fill="#ADA59C"/>
<circle cx="57.5" cy="35.5" r="2.5" fill="#ADA59C"/>
<circle cx="68.5" cy="35.5" r="2.5" fill="#ADA59C"/>
<circle cx="79.5" cy="35.5" r="2.5" fill="#ADA59C"/>
<circle cx="90.5" cy="35.5" r="2.5" fill="#ADA59C"/>
<circle cx="101.5" cy="35.5" r="2.5" fill="#ADA59C"/>
<circle cx="112.5" cy="35.5" r="2.5" fill="#ADA59C"/>
<circle cx="123.5" cy="35.5" r="2.5" fill="#ADA59C"/>
<circle cx="134.5" cy="35.5" r="2.5" fill="#ADA59C"/>
<circle cx="145.5" cy="35.5" r="2.5" fill="#ADA59C"/>
<circle cx="2.5" cy="46.5" r="2.5" fill="#ADA59C"/>
<circle cx="13.5" cy="46.5" r="2.5" fill="#ADA59C"/>
<circle cx="24.5" cy="46.5" r="2.5" fill="#ADA59C"/>
<circle cx="35.5" cy="46.5" r="2.5" fill="#ADA59C"/>
<circle cx="46.5" cy="46.5" r="2.5" fill="#ADA59C"/>
<circle cx="57.5" cy="46.5" r="2.5" fill="#ADA59C"/>
<circle cx="68.5" cy="46.5" r="2.5" fill="#ADA59C"/>
<circle cx="79.5" cy="46.5" r="2.5" fill="#ADA59C"/>
<circle cx="90.5" cy="46.5" r="2.5" fill="#ADA59C"/>
<circle cx="101.5" cy="46.5" r="2.5" fill="#ADA59C"/>
<circle cx="112.5" cy="46.5" r="2.5" fill="#ADA59C"/>
<circle cx="123.5" cy="46.5" r="2.5" fill="#ADA59C"/>
<circle cx="134.5" cy="46.5" r="2.5" fill="#ADA59C"/>
<circle cx="145.5" cy="46.5" r="2.5" fill="#ADA59C"/>
<circle cx="2.5" cy="57.5" r="2.5" fill="#ADA59C"/>
<circle cx="13.5" cy="57.5" r="2.5" fill="#ADA59C"/>
<circle cx="24.5" cy="57.5" r="2.5" fill="#ADA59C"/>
<circle cx="35.5" cy="57.5" r="2.5" fill="#ADA59C"/>
<circle cx="46.5" cy="57.5" r="2.5" fill="#ADA59C"/>
<circle cx="57.5" cy="57.5" r="2.5" fill="#ADA59C"/>
<circle cx="68.5" cy="57.5" r="2.5" fill="#ADA59C"/>
<circle cx="79.5" cy="57.5" r="2.5" fill="#ADA59C"/>
<circle cx="90.5" cy="57.5" r="2.5" fill="#ADA59C"/>
<circle cx="101.5" cy="57.5" r="2.5" fill="#ADA59C"/>
<circle cx="112.5" cy="57.5" r="2.5" fill="#ADA59C"/>
<circle cx="123.5" cy="57.5" r="2.5" fill="#ADA59C"/>
<circle cx="134.5" cy="57.5" r="2.5" fill="#ADA59C"/>
<circle cx="145.5" cy="57.5" r="2.5" fill="#ADA59C"/>
<circle cx="2.5" cy="68.5" r="2.5" fill="#ADA59C"/>
<circle cx="13.5" cy="68.5" r="2.5" fill="#ADA59C"/>
<circle cx="24.5" cy="68.5" r="2.5" fill="#ADA59C"/>
<circle cx="35.5" cy="68.5" r="2.5" fill="#ADA59C"/>
<circle cx="46.5" cy="68.5" r="2.5" fill="#ADA59C"/>
<circle cx="57.5" cy="68.5" r="2.5" fill="#ADA59C"/>
<circle cx="68.5" cy="68.5" r="2.5" fill="#ADA59C"/>
<circle cx="79.5" cy="68.5" r="2.5" fill="#ADA59C"/>
<circle cx="90.5" cy="68.5" r="2.5" fill="#ADA59C"/>
<circle cx="101.5" cy="68.5" r="2.5" fill="#ADA59C"/>
<circle cx="112.5" cy="68.5" r="2.5" fill="#ADA59C"/>
<circle cx="123.5" cy="68.5" r="2.5" fill="#ADA59C"/>
<circle cx="134.5" cy="68.5" r="2.5" fill="#ADA59C"/>
<circle cx="145.5" cy="68.5" r="2.5" fill="#ADA59C"/>
<circle cx="2.5" cy="79.5" r="2.5" fill="#ADA59C"/>
<circle cx="13.5" cy="79.5" r="2.5" fill="#ADA59C"/>
<circle cx="24.5" cy="79.5" r="2.5" fill="#ADA59C"/>
<circle cx="35.5" cy="79.5" r="2.5" fill="#ADA59C"/>
<circle cx="46.5" cy="79.5" r="2.5" fill="#ADA59C"/>
<circle cx="57.5" cy="79.5" r="2.5" fill="#ADA59C"/>
<circle cx="68.5" cy="79.5" r="2.5" fill="#ADA59C"/>
<circle cx="79.5" cy="79.5" r="2.5" fill="#ADA59C"/>
<circle cx="90.5" cy="79.5" r="2.5" fill="#ADA59C"/>
<circle cx="101.5" cy="79.5" r="2.5" fill="#ADA59C"/>
<circle cx="112.5" cy="79.5" r="2.5" fill="#ADA59C"/>
<circle cx="123.5" cy="79.5" r="2.5" fill="#ADA59C"/>
<circle cx="134.5" cy="79.5" r="2.5" fill="#ADA59C"/>
<circle cx="145.5" cy="79.5" r="2.5" fill="#ADA59C"/>
<circle cx="2.5" cy="90.5" r="2.5" fill="#ADA59C"/>
<circle cx="13.5" cy="90.5" r="2.5" fill="#ADA59C"/>
<circle cx="24.5" cy="90.5" r="2.5" fill="#ADA59C"/>
<circle cx="35.5" cy="90.5" r="2.5" fill="#ADA59C"/>
<circle cx="46.5" cy="90.5" r="2.5" fill="#ADA59C"/>
<circle cx="57.5" cy="90.5" r="2.5" fill="#ADA59C"/>
<circle cx="68.5" cy="90.5" r="2.5" fill="#ADA59C"/>
<circle cx="79.5" cy="90.5" r="2.5" fill="#ADA59C"/>
<circle cx="90.5" cy="90.5" r="2.5" fill="#ADA59C"/>
<circle cx="101.5" cy="90.5" r="2.5" fill="#ADA59C"/>
<circle cx="112.5" cy="90.5" r="2.5" fill="#ADA59C"/>
<circle cx="123.5" cy="90.5" r="2.5" fill="#ADA59C"/>
<circle cx="134.5" cy="90.5" r="2.5" fill="#ADA59C"/>
<circle cx="145.5" cy="90.5" r="2.5" fill="#ADA59C"/>
<circle cx="2.5" cy="101.5" r="2.5" fill="#ADA59C"/>
<circle cx="13.5" cy="101.5" r="2.5" fill="#ADA59C"/>
<circle cx="24.5" cy="101.5" r="2.5" fill="#ADA59C"/>
<circle cx="35.5" cy="101.5" r="2.5" fill="#ADA59C"/>
<circle cx="46.5" cy="101.5" r="2.5" fill="#ADA59C"/>
<circle cx="57.5" cy="101.5" r="2.5" fill="#ADA59C"/>
<circle cx="68.5" cy="101.5" r="2.5" fill="#ADA59C"/>
<circle cx="79.5" cy="101.5" r="2.5" fill="#ADA59C"/>
<circle cx="90.5" cy="101.5" r="2.5" fill="#ADA59C"/>
<circle cx="101.5" cy="101.5" r="2.5" fill="#ADA59C"/>
<circle cx="112.5" cy="101.5" r="2.5" fill="#ADA59C"/>
<circle cx="123.5" cy="101.5" r="2.5" fill="#ADA59C"/>
<circle cx="134.5" cy="101.5" r="2.5" fill="#ADA59C"/>
<circle cx="145.5" cy="101.5" r="2.5" fill="#ADA59C"/>
<circle cx="2.5" cy="112.5" r="2.5" fill="#ADA59C"/>
<circle cx="13.5" cy="112.5" r="2.5" fill="#ADA59C"/>
<circle cx="24.5" cy="112.5" r="2.5" fill="#ADA59C"/>
<circle cx="35.5" cy="112.5" r="2.5" fill="#ADA59C"/>
<circle cx="46.5" cy="112.5" r="2.5" fill="#ADA59C"/>
<circle cx="57.5" cy="112.5" r="2.5" fill="#ADA59C"/>
<circle cx="68.5" cy="112.5" r="2.5" fill="#ADA59C"/>
<circle cx="79.5" cy="112.5" r="2.5" fill="#ADA59C"/>
<circle cx="90.5" cy="112.5" r="2.5" fill="#ADA59C"/>
<circle cx="101.5" cy="112.5" r="2.5" fill="#ADA59C"/>
<circle cx="112.5" cy="112.5" r="2.5" fill="#ADA59C"/>
<circle cx="123.5" cy="112.5" r="2.5" fill="#ADA59C"/>
<circle cx="134.5" cy="112.5" r="2.5" fill="#ADA59C"/>
<circle cx="145.5" cy="112.5" r="2.5" fill="#ADA59C"/>
<circle cx="2.5" cy="123.5" r="2.5" fill="#ADA59C"/>
<circle cx="13.5" cy="123.5" r="2.5" fill="#ADA59C"/>
<circle cx="24.5" cy="123.5" r="2.5" fill="#ADA59C"/>
<circle cx="35.5" cy="123.5" r="2.5" fill="#ADA59C"/>
<circle cx="46.5" cy="123.5" r="2.5" fill="#ADA59C"/>
<circle cx="57.5" cy="123.5" r="2.5" fill="#ADA59C"/>
<circle cx="68.5" cy="123.5" r="2.5" fill="#ADA59C"/>
<circle cx="79.5" cy="123.5" r="2.5" fill="#ADA59C"/>
<circle cx="90.5" cy="123.5" r="2.5" fill="#ADA59C"/>
<circle cx="101.5" cy="123.5" r="2.5" fill="#ADA59C"/>
<circle cx="112.5" cy="123.5" r="2.5" fill="#ADA59C"/>
<circle cx="123.5" cy="123.5" r="2.5" fill="#ADA59C"/>
<circle cx="134.5" cy="123.5" r="2.5" fill="#ADA59C"/>
<circle cx="145.5" cy="123.5" r="2.5" fill="#ADA59C"/>
<circle cx="2.5" cy="134.5" r="2.5" fill="#ADA59C"/>
<circle cx="13.5" cy="134.5" r="2.5" fill="#ADA59C"/>
<circle cx="24.5" cy="134.5" r="2.5" fill="#ADA59C"/>
<circle cx="35.5" cy="134.5" r="2.5" fill="#ADA59C"/>
<circle cx="46.5" cy="134.5" r="2.5" fill="#ADA59C"/>
<circle cx="57.5" cy="134.5" r="2.5" fill="#ADA59C"/>
<circle cx="68.5" cy="134.5" r="2.5" fill="#ADA59C"/>
<circle cx="79.5" cy="134.5" r="2.5" fill="#ADA59C"/>
<circle cx="90.5" cy="134.5" r="2.5" fill="#ADA59C"/>
<circle cx="101.5" cy="134.5" r="2.5" fill="#ADA59C"/>
<circle cx="112.5" cy="134.5" r="2.5" fill="#ADA59C"/>
<circle cx="123.5" cy="134.5" r="2.5" fill="#ADA59C"/>
<circle cx="134.5" cy="134.5" r="2.5" fill="#ADA59C"/>
<circle cx="145.5" cy="134.5" r="2.5" fill="#ADA59C"/>
<circle cx="2.5" cy="145.5" r="2.5" fill="#ADA59C"/>
<circle cx="13.5" cy="145.5" r="2.5" fill="#ADA59C"/>
<circle cx="24.5" cy="145.5" r="2.5" fill="#ADA59C"/>
<circle cx="35.5" cy="145.5" r="2.5" fill="#ADA59C"/>
<circle cx="46.5" cy="145.5" r="2.5" fill="#ADA59C"/>
<circle cx="57.5" cy="145.5" r="2.5" fill="#ADA59C"/>
<circle cx="68.5" cy="145.5" r="2.5" fill="#ADA59C"/>
<circle cx="79.5" cy="145.5" r="2.5" fill="#ADA59C"/>
<circle cx="90.5" cy="145.5" r="2.5" fill="#ADA59C"/>
<circle cx="101.5" cy="145.5" r="2.5" fill="#ADA59C"/>
<circle cx="112.5" cy="145.5" r="2.5" fill="#ADA59C"/>
<circle cx="123.5" cy="145.5" r="2.5" fill="#ADA59C"/>
<circle cx="134.5" cy="145.5" r="2.5" fill="#ADA59C"/>
<circle cx="145.5" cy="145.5" r="2.5" fill="#ADA59C"/>
</g>
<defs>
<clipPath id="clip0_6679:11855">
<rect width="154" height="154" fill="white"/>
</clipPath>
</defs>
</svg>
