<svg xmlns="http://www.w3.org/2000/svg" xmlns:xlink="http://www.w3.org/1999/xlink" width="96" zoomAndPan="magnify" viewBox="0 0 72 52.499999" height="70" preserveAspectRatio="xMidYMid meet" version="1.0"><defs><g/><clipPath id="1e0aaa3161"><path d="M 0.339844 0 L 71.660156 0 L 71.660156 52.003906 L 0.339844 52.003906 Z M 0.339844 0 " clip-rule="nonzero"/></clipPath><clipPath id="611e8f28d1"><path d="M 2.34375 1.855469 L 70.25 1.855469 L 70.25 50.296875 L 2.34375 50.296875 Z M 2.34375 1.855469 " clip-rule="nonzero"/></clipPath><clipPath id="3b55d5d4b5"><path d="M 4.574219 1.855469 L 68.019531 1.855469 C 68.609375 1.855469 69.179688 2.09375 69.597656 2.511719 C 70.015625 2.929688 70.25 3.496094 70.25 4.085938 L 70.25 48.066406 C 70.25 48.660156 70.015625 49.226562 69.597656 49.644531 C 69.179688 50.0625 68.609375 50.296875 68.019531 50.296875 L 4.574219 50.296875 C 3.984375 50.296875 3.417969 50.0625 3 49.644531 C 2.582031 49.226562 2.34375 48.660156 2.34375 48.066406 L 2.34375 4.085938 C 2.34375 3.496094 2.582031 2.929688 3 2.511719 C 3.417969 2.09375 3.984375 1.855469 4.574219 1.855469 Z M 4.574219 1.855469 " clip-rule="nonzero"/></clipPath><clipPath id="445565ff5c"><path d="M 2.34375 1.855469 L 70.25 1.855469 L 70.25 24.492188 L 2.34375 24.492188 Z M 2.34375 1.855469 " clip-rule="nonzero"/></clipPath><clipPath id="7c44a87e1e"><path d="M 4.574219 1.855469 L 68.019531 1.855469 C 68.609375 1.855469 69.179688 2.09375 69.597656 2.511719 C 70.015625 2.929688 70.25 3.496094 70.25 4.085938 L 70.25 22.261719 C 70.25 22.855469 70.015625 23.421875 69.597656 23.839844 C 69.179688 24.257812 68.609375 24.492188 68.019531 24.492188 L 4.574219 24.492188 C 3.984375 24.492188 3.417969 24.257812 3 23.839844 C 2.582031 23.421875 2.34375 22.855469 2.34375 22.261719 L 2.34375 4.085938 C 2.34375 3.496094 2.582031 2.929688 3 2.511719 C 3.417969 2.09375 3.984375 1.855469 4.574219 1.855469 Z M 4.574219 1.855469 " clip-rule="nonzero"/></clipPath></defs><g clip-path="url(#1e0aaa3161)"><path fill="#ffffff" d="M 0.339844 0 L 71.660156 0 L 71.660156 52.003906 L 0.339844 52.003906 Z M 0.339844 0 " fill-opacity="1" fill-rule="nonzero"/><path fill="#ffffff" d="M 0.339844 0 L 71.660156 0 L 71.660156 52.003906 L 0.339844 52.003906 Z M 0.339844 0 " fill-opacity="1" fill-rule="nonzero"/></g><g clip-path="url(#611e8f28d1)"><g clip-path="url(#3b55d5d4b5)"><path fill="#ffffff" d="M 2.34375 1.855469 L 70.25 1.855469 L 70.25 50.296875 L 2.34375 50.296875 Z M 2.34375 1.855469 " fill-opacity="1" fill-rule="nonzero"/></g></g><g clip-path="url(#445565ff5c)"><g clip-path="url(#7c44a87e1e)"><path fill="#ede8f7" d="M 2.34375 1.855469 L 70.25 1.855469 L 70.25 24.492188 L 2.34375 24.492188 Z M 2.34375 1.855469 " fill-opacity="1" fill-rule="nonzero"/></g></g><g fill="#683fbe" fill-opacity="1"><g transform="translate(25.628076, 15.254721)"><g><path d="M 3.8125 -7.78125 C 5.070312 -7.78125 6.03125 -7.453125 6.6875 -6.796875 C 7.351562 -6.140625 7.6875 -5.171875 7.6875 -3.890625 C 7.6875 -2.609375 7.351562 -1.640625 6.6875 -0.984375 C 6.03125 -0.328125 5.070312 0 3.8125 0 L 1.015625 0 L 1.015625 -7.78125 Z M 3.71875 -1.296875 C 4.519531 -1.296875 5.117188 -1.5 5.515625 -1.90625 C 5.910156 -2.3125 6.109375 -2.972656 6.109375 -3.890625 C 6.109375 -4.796875 5.910156 -5.453125 5.515625 -5.859375 C 5.117188 -6.273438 4.519531 -6.484375 3.71875 -6.484375 L 2.546875 -6.484375 L 2.546875 -1.296875 Z M 3.71875 -1.296875 "/></g></g></g><g fill="#683fbe" fill-opacity="1"><g transform="translate(33.937991, 15.254721)"><g><path d="M 5.796875 -2.59375 L 2.03125 -2.59375 C 2.070312 -2.082031 2.210938 -1.710938 2.453125 -1.484375 C 2.703125 -1.253906 3.046875 -1.140625 3.484375 -1.140625 C 3.816406 -1.140625 4.085938 -1.203125 4.296875 -1.328125 C 4.503906 -1.453125 4.671875 -1.640625 4.796875 -1.890625 L 4.90625 -1.890625 L 5.890625 -1.265625 C 5.703125 -0.859375 5.414062 -0.523438 5.03125 -0.265625 C 4.644531 -0.015625 4.128906 0.109375 3.484375 0.109375 C 2.867188 0.109375 2.34375 -0.00390625 1.90625 -0.234375 C 1.46875 -0.460938 1.128906 -0.804688 0.890625 -1.265625 C 0.648438 -1.722656 0.53125 -2.28125 0.53125 -2.9375 C 0.53125 -3.601562 0.65625 -4.160156 0.90625 -4.609375 C 1.15625 -5.066406 1.492188 -5.410156 1.921875 -5.640625 C 2.347656 -5.867188 2.832031 -5.984375 3.375 -5.984375 C 4.195312 -5.984375 4.828125 -5.757812 5.265625 -5.3125 C 5.710938 -4.875 5.9375 -4.226562 5.9375 -3.375 C 5.9375 -3.070312 5.925781 -2.835938 5.90625 -2.671875 Z M 4.53125 -3.546875 C 4.519531 -3.992188 4.414062 -4.316406 4.21875 -4.515625 C 4.03125 -4.722656 3.75 -4.828125 3.375 -4.828125 C 2.625 -4.828125 2.1875 -4.398438 2.0625 -3.546875 Z M 4.53125 -3.546875 "/></g></g></g><g fill="#683fbe" fill-opacity="1"><g transform="translate(40.312647, 15.254721)"><g><path d="M 3.421875 0.109375 C 2.847656 0.109375 2.34375 -0.00390625 1.90625 -0.234375 C 1.476562 -0.472656 1.140625 -0.820312 0.890625 -1.28125 C 0.648438 -1.738281 0.53125 -2.289062 0.53125 -2.9375 C 0.53125 -3.570312 0.648438 -4.117188 0.890625 -4.578125 C 1.140625 -5.035156 1.476562 -5.382812 1.90625 -5.625 C 2.34375 -5.863281 2.835938 -5.984375 3.390625 -5.984375 C 4.628906 -5.984375 5.421875 -5.53125 5.765625 -4.625 L 4.765625 -3.90625 L 4.640625 -3.90625 C 4.523438 -4.1875 4.367188 -4.394531 4.171875 -4.53125 C 3.984375 -4.664062 3.722656 -4.734375 3.390625 -4.734375 C 2.960938 -4.734375 2.628906 -4.582031 2.390625 -4.28125 C 2.160156 -3.988281 2.046875 -3.539062 2.046875 -2.9375 C 2.046875 -2.332031 2.164062 -1.878906 2.40625 -1.578125 C 2.644531 -1.285156 2.984375 -1.140625 3.421875 -1.140625 C 3.734375 -1.140625 4 -1.222656 4.21875 -1.390625 C 4.445312 -1.566406 4.609375 -1.816406 4.703125 -2.140625 L 4.8125 -2.140625 L 5.859375 -1.578125 C 5.710938 -1.078125 5.4375 -0.671875 5.03125 -0.359375 C 4.632812 -0.046875 4.097656 0.109375 3.421875 0.109375 Z M 3.421875 0.109375 "/></g></g></g><g fill="#000000" fill-opacity="1"><g transform="translate(29.746084, 41.74999)"><g><path d="M 0.375 -0.609375 C 0.375 -1.046875 0.421875 -1.410156 0.515625 -1.703125 C 0.609375 -1.992188 0.757812 -2.257812 0.96875 -2.5 C 1.1875 -2.75 1.488281 -3.015625 1.875 -3.296875 L 2.921875 -4.046875 C 3.203125 -4.242188 3.421875 -4.414062 3.578125 -4.5625 C 3.734375 -4.71875 3.851562 -4.875 3.9375 -5.03125 C 4.019531 -5.195312 4.0625 -5.382812 4.0625 -5.59375 C 4.0625 -5.90625 3.960938 -6.144531 3.765625 -6.3125 C 3.578125 -6.488281 3.289062 -6.578125 2.90625 -6.578125 C 2.539062 -6.578125 2.210938 -6.488281 1.921875 -6.3125 C 1.640625 -6.144531 1.40625 -5.90625 1.21875 -5.59375 L 1.109375 -5.578125 L 0.265625 -6.515625 C 0.546875 -6.929688 0.90625 -7.265625 1.34375 -7.515625 C 1.789062 -7.765625 2.332031 -7.890625 2.96875 -7.890625 C 3.550781 -7.890625 4.035156 -7.789062 4.421875 -7.59375 C 4.816406 -7.40625 5.109375 -7.144531 5.296875 -6.8125 C 5.484375 -6.476562 5.578125 -6.097656 5.578125 -5.671875 C 5.578125 -5.304688 5.5 -4.96875 5.34375 -4.65625 C 5.195312 -4.351562 4.984375 -4.070312 4.703125 -3.8125 C 4.429688 -3.5625 4.082031 -3.285156 3.65625 -2.984375 L 2.75 -2.34375 C 2.46875 -2.144531 2.269531 -1.96875 2.15625 -1.8125 C 2.050781 -1.65625 2 -1.476562 2 -1.28125 L 5.515625 -1.28125 L 5.515625 0 L 0.375 0 Z M 0.375 -0.609375 "/></g></g></g><g fill="#000000" fill-opacity="1"><g transform="translate(35.812374, 41.74999)"><g><path d="M 3.171875 0.109375 C 2.335938 0.109375 1.675781 -0.0664062 1.1875 -0.421875 C 0.695312 -0.773438 0.382812 -1.273438 0.25 -1.921875 L 1.421875 -2.453125 L 1.546875 -2.4375 C 1.671875 -2.007812 1.851562 -1.695312 2.09375 -1.5 C 2.34375 -1.300781 2.679688 -1.203125 3.109375 -1.203125 C 3.535156 -1.203125 3.859375 -1.296875 4.078125 -1.484375 C 4.296875 -1.679688 4.40625 -1.96875 4.40625 -2.34375 C 4.40625 -2.707031 4.296875 -2.988281 4.078125 -3.1875 C 3.859375 -3.382812 3.535156 -3.484375 3.109375 -3.484375 L 1.953125 -3.484375 L 1.953125 -4.671875 L 2.96875 -4.671875 C 3.3125 -4.671875 3.585938 -4.757812 3.796875 -4.9375 C 4.003906 -5.113281 4.109375 -5.359375 4.109375 -5.671875 C 4.109375 -5.992188 4.007812 -6.234375 3.8125 -6.390625 C 3.625 -6.554688 3.359375 -6.640625 3.015625 -6.640625 C 2.671875 -6.640625 2.363281 -6.554688 2.09375 -6.390625 C 1.820312 -6.234375 1.609375 -6.015625 1.453125 -5.734375 L 1.328125 -5.71875 L 0.515625 -6.65625 C 0.785156 -7.019531 1.132812 -7.316406 1.5625 -7.546875 C 2 -7.773438 2.507812 -7.890625 3.09375 -7.890625 C 3.914062 -7.890625 4.539062 -7.71875 4.96875 -7.375 C 5.394531 -7.03125 5.609375 -6.550781 5.609375 -5.9375 C 5.609375 -5.5625 5.519531 -5.242188 5.34375 -4.984375 C 5.175781 -4.722656 4.925781 -4.492188 4.59375 -4.296875 L 4.59375 -4.1875 C 5.488281 -3.875 5.9375 -3.238281 5.9375 -2.28125 C 5.9375 -1.789062 5.832031 -1.367188 5.625 -1.015625 C 5.425781 -0.660156 5.117188 -0.382812 4.703125 -0.1875 C 4.285156 0.0078125 3.773438 0.109375 3.171875 0.109375 Z M 3.171875 0.109375 "/></g></g></g></svg>