<svg xmlns="http://www.w3.org/2000/svg" xmlns:xlink="http://www.w3.org/1999/xlink" width="96" zoomAndPan="magnify" viewBox="0 0 72 52.499999" height="70" preserveAspectRatio="xMidYMid meet" version="1.0"><defs><g/><clipPath id="960b39ef44"><path d="M 0.339844 0 L 71.660156 0 L 71.660156 52.003906 L 0.339844 52.003906 Z M 0.339844 0 " clip-rule="nonzero"/></clipPath><clipPath id="821c24a139"><path d="M 2.34375 1.855469 L 70.25 1.855469 L 70.25 50.296875 L 2.34375 50.296875 Z M 2.34375 1.855469 " clip-rule="nonzero"/></clipPath><clipPath id="57a99e8be3"><path d="M 4.574219 1.855469 L 68.019531 1.855469 C 68.609375 1.855469 69.179688 2.09375 69.597656 2.511719 C 70.015625 2.929688 70.25 3.496094 70.25 4.085938 L 70.25 48.066406 C 70.25 48.660156 70.015625 49.226562 69.597656 49.644531 C 69.179688 50.0625 68.609375 50.296875 68.019531 50.296875 L 4.574219 50.296875 C 3.984375 50.296875 3.417969 50.0625 3 49.644531 C 2.582031 49.226562 2.34375 48.660156 2.34375 48.066406 L 2.34375 4.085938 C 2.34375 3.496094 2.582031 2.929688 3 2.511719 C 3.417969 2.09375 3.984375 1.855469 4.574219 1.855469 Z M 4.574219 1.855469 " clip-rule="nonzero"/></clipPath><clipPath id="71a030db64"><path d="M 2.34375 1.855469 L 70.25 1.855469 L 70.25 24.492188 L 2.34375 24.492188 Z M 2.34375 1.855469 " clip-rule="nonzero"/></clipPath><clipPath id="70c90bfd1d"><path d="M 4.574219 1.855469 L 68.019531 1.855469 C 68.609375 1.855469 69.179688 2.09375 69.597656 2.511719 C 70.015625 2.929688 70.25 3.496094 70.25 4.085938 L 70.25 22.261719 C 70.25 22.855469 70.015625 23.421875 69.597656 23.839844 C 69.179688 24.257812 68.609375 24.492188 68.019531 24.492188 L 4.574219 24.492188 C 3.984375 24.492188 3.417969 24.257812 3 23.839844 C 2.582031 23.421875 2.34375 22.855469 2.34375 22.261719 L 2.34375 4.085938 C 2.34375 3.496094 2.582031 2.929688 3 2.511719 C 3.417969 2.09375 3.984375 1.855469 4.574219 1.855469 Z M 4.574219 1.855469 " clip-rule="nonzero"/></clipPath></defs><g clip-path="url(#960b39ef44)"><path fill="#ffffff" d="M 0.339844 0 L 71.660156 0 L 71.660156 52.003906 L 0.339844 52.003906 Z M 0.339844 0 " fill-opacity="1" fill-rule="nonzero"/><path fill="#ffffff" d="M 0.339844 0 L 71.660156 0 L 71.660156 52.003906 L 0.339844 52.003906 Z M 0.339844 0 " fill-opacity="1" fill-rule="nonzero"/></g><g clip-path="url(#821c24a139)"><g clip-path="url(#57a99e8be3)"><path fill="#ffffff" d="M 2.34375 1.855469 L 70.25 1.855469 L 70.25 50.296875 L 2.34375 50.296875 Z M 2.34375 1.855469 " fill-opacity="1" fill-rule="nonzero"/></g></g><g clip-path="url(#71a030db64)"><g clip-path="url(#70c90bfd1d)"><path fill="#ede8f7" d="M 2.34375 1.855469 L 70.25 1.855469 L 70.25 24.492188 L 2.34375 24.492188 Z M 2.34375 1.855469 " fill-opacity="1" fill-rule="nonzero"/></g></g><g fill="#683fbe" fill-opacity="1"><g transform="translate(25.044765, 15.254721)"><g><path d="M 2.71875 0.109375 C 2.0625 0.109375 1.515625 -0.015625 1.078125 -0.265625 C 0.640625 -0.515625 0.320312 -0.847656 0.125 -1.265625 L 1 -2.328125 L 1.125 -2.328125 C 1.269531 -1.984375 1.472656 -1.710938 1.734375 -1.515625 C 1.992188 -1.316406 2.296875 -1.21875 2.640625 -1.21875 C 3.023438 -1.21875 3.3125 -1.328125 3.5 -1.546875 C 3.6875 -1.773438 3.78125 -2.144531 3.78125 -2.65625 L 3.78125 -7.78125 L 5.3125 -7.78125 L 5.3125 -2.625 C 5.3125 -1.6875 5.097656 -0.992188 4.671875 -0.546875 C 4.242188 -0.109375 3.59375 0.109375 2.71875 0.109375 Z M 2.71875 0.109375 "/></g></g></g><g fill="#683fbe" fill-opacity="1"><g transform="translate(31.318404, 15.254721)"><g><path d="M 2.28125 0.109375 C 1.90625 0.109375 1.578125 0.0390625 1.296875 -0.09375 C 1.023438 -0.226562 0.816406 -0.429688 0.671875 -0.703125 C 0.523438 -0.972656 0.453125 -1.296875 0.453125 -1.671875 C 0.453125 -2.015625 0.523438 -2.300781 0.671875 -2.53125 C 0.816406 -2.769531 1.046875 -2.960938 1.359375 -3.109375 C 1.671875 -3.265625 2.078125 -3.382812 2.578125 -3.46875 C 2.929688 -3.53125 3.195312 -3.59375 3.375 -3.65625 C 3.5625 -3.726562 3.6875 -3.804688 3.75 -3.890625 C 3.8125 -3.972656 3.84375 -4.082031 3.84375 -4.21875 C 3.84375 -4.40625 3.773438 -4.546875 3.640625 -4.640625 C 3.515625 -4.742188 3.300781 -4.796875 3 -4.796875 C 2.675781 -4.796875 2.363281 -4.722656 2.0625 -4.578125 C 1.769531 -4.429688 1.515625 -4.238281 1.296875 -4 L 1.203125 -4 L 0.578125 -4.921875 C 0.878906 -5.253906 1.242188 -5.515625 1.671875 -5.703125 C 2.097656 -5.890625 2.566406 -5.984375 3.078125 -5.984375 C 3.847656 -5.984375 4.40625 -5.816406 4.75 -5.484375 C 5.101562 -5.148438 5.28125 -4.679688 5.28125 -4.078125 L 5.28125 -1.53125 C 5.28125 -1.269531 5.394531 -1.140625 5.625 -1.140625 C 5.71875 -1.140625 5.804688 -1.15625 5.890625 -1.1875 L 5.96875 -1.171875 L 6.0625 -0.140625 C 5.976562 -0.0859375 5.863281 -0.0390625 5.71875 0 C 5.582031 0.03125 5.425781 0.046875 5.25 0.046875 C 4.894531 0.046875 4.617188 -0.0195312 4.421875 -0.15625 C 4.222656 -0.289062 4.082031 -0.503906 4 -0.796875 L 3.890625 -0.796875 C 3.609375 -0.191406 3.070312 0.109375 2.28125 0.109375 Z M 2.75 -0.984375 C 3.09375 -0.984375 3.363281 -1.097656 3.5625 -1.328125 C 3.769531 -1.554688 3.875 -1.875 3.875 -2.28125 L 3.875 -2.875 L 3.78125 -2.90625 C 3.6875 -2.832031 3.566406 -2.769531 3.421875 -2.71875 C 3.285156 -2.675781 3.082031 -2.628906 2.8125 -2.578125 C 2.488281 -2.523438 2.253906 -2.429688 2.109375 -2.296875 C 1.972656 -2.171875 1.90625 -1.992188 1.90625 -1.765625 C 1.90625 -1.503906 1.976562 -1.304688 2.125 -1.171875 C 2.28125 -1.046875 2.488281 -0.984375 2.75 -0.984375 Z M 2.75 -0.984375 "/></g></g></g><g fill="#683fbe" fill-opacity="1"><g transform="translate(37.501661, 15.254721)"><g><path d="M 0.84375 0 L 0.84375 -5.859375 L 2.265625 -5.859375 L 2.265625 -5 L 2.375 -4.984375 C 2.738281 -5.648438 3.328125 -5.984375 4.140625 -5.984375 C 4.816406 -5.984375 5.3125 -5.796875 5.625 -5.421875 C 5.945312 -5.054688 6.109375 -4.519531 6.109375 -3.8125 L 6.109375 0 L 4.640625 0 L 4.640625 -3.625 C 4.640625 -4.019531 4.5625 -4.300781 4.40625 -4.46875 C 4.25 -4.644531 4 -4.734375 3.65625 -4.734375 C 3.238281 -4.734375 2.910156 -4.59375 2.671875 -4.3125 C 2.429688 -4.039062 2.3125 -3.613281 2.3125 -3.03125 L 2.3125 0 Z M 0.84375 0 "/></g></g></g><g fill="#683fbe" fill-opacity="1"><g transform="translate(44.372409, 15.254721)"><g/></g></g><g fill="#000000" fill-opacity="1"><g transform="translate(29.740279, 41.74999)"><g><path d="M 0.40625 0 L 0.40625 -1.265625 L 2.28125 -1.265625 L 2.28125 -6.109375 L 2.171875 -6.140625 C 1.898438 -6.015625 1.632812 -5.914062 1.375 -5.84375 C 1.125 -5.769531 0.832031 -5.707031 0.5 -5.65625 L 0.5 -6.984375 C 1.363281 -7.160156 2.0625 -7.425781 2.59375 -7.78125 L 3.8125 -7.78125 L 3.8125 -1.265625 L 5.484375 -1.265625 L 5.484375 0 Z M 0.40625 0 "/></g></g></g><g fill="#000000" fill-opacity="1"><g transform="translate(35.476938, 41.74999)"><g><path d="M 5.28125 0 L 3.8125 0 L 3.8125 -1.6875 L 0.265625 -1.6875 L 0.265625 -2.9375 L 3.3125 -7.78125 L 5.28125 -7.78125 L 5.28125 -2.9375 L 6.484375 -2.9375 L 6.484375 -1.6875 L 5.28125 -1.6875 Z M 1.84375 -3.046875 L 1.890625 -2.9375 L 3.8125 -2.9375 L 3.8125 -5.9375 L 3.6875 -5.96875 Z M 1.84375 -3.046875 "/></g></g></g></svg>