<svg width="165" height="167" viewBox="0 0 165 167" fill="none" xmlns="http://www.w3.org/2000/svg">
<g opacity="0.2">
<g clip-path="url(#clip0_4186_10592)">
<path d="M112.003 28.9302L88.1281 23.323C87.6061 23.2003 87.0615 23.2199 86.5494 23.3797C86.0373 23.5394 85.5759 23.8338 85.2119 24.2328L56.3144 55.9391C55.9531 56.3358 55.7007 56.8219 55.5826 57.3487C55.4644 57.8755 55.4846 58.4246 55.6412 58.941C55.7977 59.4574 56.0851 59.923 56.4746 60.2912C56.8641 60.6594 57.342 60.9174 57.8606 61.0393L80.0444 66.2482L86.8835 88.2932C87.0435 88.8085 87.334 89.2721 87.726 89.6377C88.1179 90.0032 88.5975 90.2579 89.1169 90.3762C89.6362 90.4946 90.1771 90.4724 90.6853 90.3119C91.1936 90.1514 91.6514 89.8583 92.013 89.4618L120.911 57.7555C121.274 57.3562 121.527 56.8664 121.645 56.3357C121.762 55.8051 121.739 55.2524 121.578 54.7337L114.216 31.0086C114.058 30.4964 113.77 30.0351 113.382 29.6705C112.993 29.306 112.518 29.0508 112.003 28.9302V28.9302Z" fill="#E2D6F8"/>
</g>
<g clip-path="url(#clip1_4186_10592)">
<path d="M70.8029 72.8638L46.9284 67.2566C46.4064 67.1339 45.8618 67.1535 45.3497 67.3132C44.8376 67.473 44.3762 67.7674 44.0122 68.1664L15.1147 99.8727C14.7534 100.269 14.501 100.756 14.3829 101.282C14.2647 101.809 14.2849 102.358 14.4415 102.875C14.598 103.391 14.8854 103.857 15.2749 104.225C15.6644 104.593 16.1423 104.851 16.6609 104.973L38.8446 110.182L45.6838 132.227C45.8438 132.742 46.1343 133.206 46.5262 133.571C46.9182 133.937 47.3978 134.192 47.9172 134.31C48.4365 134.428 48.9774 134.406 49.4856 134.245C49.9939 134.085 50.4517 133.792 50.8133 133.395L79.7108 101.689C80.0745 101.29 80.3278 100.8 80.4449 100.269C80.5621 99.7387 80.539 99.186 80.3779 98.6673L73.0162 74.9422C72.8579 74.43 72.5703 73.9687 72.182 73.6041C71.7938 73.2396 71.3183 72.9843 70.8029 72.8638V72.8638Z" fill="#E2D6F8"/>
</g>
<g clip-path="url(#clip2_4186_10592)">
<path d="M132.543 91.2896L108.668 85.6824C108.146 85.5597 107.602 85.5793 107.089 85.739C106.577 85.8988 106.116 86.1931 105.752 86.5922L76.8545 118.298C76.4931 118.695 76.2408 119.181 76.1226 119.708C76.0045 120.235 76.0247 120.784 76.1812 121.3C76.3378 121.817 76.6252 122.282 77.0147 122.651C77.4041 123.019 77.8821 123.277 78.4006 123.399L100.584 128.608L107.424 150.653C107.584 151.168 107.874 151.632 108.266 151.997C108.658 152.363 109.138 152.617 109.657 152.736C110.176 152.854 110.717 152.832 111.225 152.671C111.734 152.511 112.191 152.218 112.553 151.821L141.451 120.115C141.814 119.716 142.068 119.226 142.185 118.695C142.302 118.164 142.279 117.612 142.118 117.093L134.756 93.368C134.598 92.8558 134.31 92.3945 133.922 92.0299C133.534 91.6653 133.058 91.4101 132.543 91.2896V91.2896Z" fill="#E2D6F8"/>
</g>
</g>
<defs>
<clipPath id="clip0_4186_10592">
<rect width="73.5417" height="73.4565" fill="white" transform="matrix(0.673612 -0.739085 0.728974 0.684541 41.2021 54.3555)"/>
</clipPath>
<clipPath id="clip1_4186_10592">
<rect width="73.5417" height="73.4565" fill="white" transform="matrix(0.673612 -0.739085 0.728974 0.684541 0 98.2891)"/>
</clipPath>
<clipPath id="clip2_4186_10592">
<rect width="73.5417" height="73.4565" fill="white" transform="matrix(0.673612 -0.739085 0.728974 0.684541 61.7378 116.711)"/>
</clipPath>
</defs>
</svg>
