<svg width="583" height="546" viewBox="0 0 583 546" fill="none" xmlns="http://www.w3.org/2000/svg">
<path fill-rule="evenodd" clip-rule="evenodd" d="M260.328 96.9133C318.646 79.7715 364.898 10.788 422.527 30.1197C482.611 50.2751 516.972 121.06 520.873 184.314C524.359 240.839 478.686 284.683 440.823 326.797C412.127 358.715 376.917 382.054 334.96 391.1C294.706 399.78 256.495 387.381 217.217 375.01C158.292 356.45 80.2416 358.739 54.2608 302.689C27.4226 244.788 55.9825 169.682 101.141 124.588C140.759 85.0253 206.611 112.703 260.328 96.9133Z" stroke="#DFDFDF" stroke-opacity="0.3" stroke-width="0.691751"/>
<path fill-rule="evenodd" clip-rule="evenodd" d="M263.031 111.732C322.021 97.0695 371.146 30.1015 427.907 51.8504C487.086 74.526 518.426 146.699 519.651 210.061C520.746 266.683 473.261 308.559 433.653 349.036C403.635 379.713 367.47 401.544 325.169 408.81C284.584 415.781 246.931 401.779 208.211 387.759C150.122 366.727 72.0447 365.717 48.4549 308.619C24.0866 249.637 55.7938 175.804 102.817 132.657C144.071 94.804 208.695 125.239 263.031 111.732Z" stroke="#DFDFDF" stroke-opacity="0.3" stroke-width="0.691751"/>
<path fill-rule="evenodd" clip-rule="evenodd" d="M266.605 124.872C325.845 111.255 376.148 45.1674 432.514 67.9174C491.283 91.6368 521.341 164.353 521.444 227.727C521.537 284.36 473.319 325.388 433.001 365.158C402.444 395.299 365.899 416.486 323.476 423.002C282.773 429.254 245.374 414.588 206.908 399.886C149.2 377.828 71.1534 375.437 48.5778 317.93C25.2571 258.526 58.2661 185.266 106.045 142.958C147.963 105.841 212.038 137.415 266.605 124.872Z" stroke="#DFDFDF" stroke-opacity="0.3" stroke-width="0.691751"/>
<path fill-rule="evenodd" clip-rule="evenodd" d="M273.547 134.234C333.294 123.053 386.26 59.0793 441.649 84.1173C499.397 110.222 526.454 184.108 523.963 247.433C521.738 304.022 471.881 343.043 429.968 381.129C398.204 409.994 360.822 429.668 318.168 434.442C277.243 439.023 240.476 422.838 202.644 406.573C145.888 382.173 68.0038 376.589 47.8008 318.207C26.9311 257.897 62.9109 186.05 112.382 145.733C155.783 110.363 218.513 144.532 273.547 134.234Z" stroke="#DFDFDF" stroke-opacity="0.3" stroke-width="0.691751"/>
<path fill-rule="evenodd" clip-rule="evenodd" d="M280.899 148.398C340.647 137.217 393.613 73.2434 449.001 98.2814C506.749 124.386 533.806 198.272 531.316 261.597C529.09 318.186 479.233 357.207 437.321 395.293C405.556 424.158 368.175 443.832 325.52 448.606C284.596 453.187 247.828 437.002 209.997 420.737C153.24 396.337 75.3563 390.753 55.1533 332.371C34.2836 272.061 70.2634 200.214 119.734 159.897C163.136 124.527 225.865 158.696 280.899 148.398Z" stroke="#DFDFDF" stroke-opacity="0.3" stroke-width="0.691751"/>
<path fill-rule="evenodd" clip-rule="evenodd" d="M284.986 161.074C344.734 149.893 397.7 85.9192 453.088 110.957C510.836 137.062 537.893 210.948 535.403 274.273C533.177 330.862 483.32 369.882 441.408 407.969C409.643 436.834 372.262 456.507 329.607 461.282C288.683 465.862 251.915 449.678 214.083 433.413C157.327 409.013 79.4432 403.429 59.2403 345.046C38.3705 284.737 74.3503 212.889 123.821 172.573C167.223 137.203 229.952 171.372 284.986 161.074Z" stroke="#DFDFDF" stroke-opacity="0.3" stroke-width="0.691751"/>
<path fill-rule="evenodd" clip-rule="evenodd" d="M282.901 176.917C342.649 165.737 395.615 101.763 451.003 126.801C508.751 152.906 535.808 226.791 533.318 290.117C531.092 346.705 481.235 385.726 439.323 423.812C407.558 452.677 370.177 472.351 327.522 477.126C286.598 481.706 249.83 465.521 211.998 449.257C155.242 424.856 77.3583 419.273 57.1553 360.89C36.2856 300.581 72.2653 228.733 121.736 188.417C165.138 153.046 227.867 187.216 282.901 176.917Z" stroke="#DFDFDF" stroke-opacity="0.3" stroke-width="0.691751"/>
<path fill-rule="evenodd" clip-rule="evenodd" d="M277.421 192.32C337.168 181.139 390.134 117.165 445.523 142.203C503.271 168.308 530.328 242.194 527.837 305.519C525.612 362.108 475.755 401.128 433.842 439.215C402.078 468.08 364.696 487.754 322.042 492.528C281.117 497.109 244.35 480.924 206.518 464.659C149.762 440.259 71.8778 434.675 51.6748 376.293C30.8051 315.983 66.7849 244.136 116.256 203.819C159.657 168.449 222.387 202.618 277.421 192.32Z" stroke="#DFDFDF" stroke-opacity="0.3" stroke-width="0.691751"/>
<path fill-rule="evenodd" clip-rule="evenodd" d="M275.336 208.167C335.083 196.987 388.049 133.013 443.438 158.051C501.186 184.156 528.243 258.041 525.752 321.367C523.527 377.955 473.67 416.976 431.757 455.062C399.993 483.927 362.611 503.601 319.957 508.376C279.032 512.956 242.265 496.771 204.433 480.507C147.677 456.106 69.7928 450.523 49.5899 392.14C28.7201 331.831 64.6999 259.983 114.171 219.667C157.572 184.296 220.302 218.466 275.336 208.167Z" stroke="#DFDFDF" stroke-opacity="0.3" stroke-width="0.691751"/>
</svg>
