<svg width="259" height="191" viewBox="0 0 259 191" fill="none" xmlns="http://www.w3.org/2000/svg">
<path d="M203.974 216.549C250.966 192.697 269.208 122.763 252.544 73.2401C234.063 18.3153 178.378 5.52815 168.8 3.5524C135.478 -3.32318 76.6864 0.232229 51.8095 42.7631C24.1611 90.0311 58.8 150.573 83.2625 177.526C89.6749 184.592 146.749 245.597 203.974 216.55V216.549Z" fill="#FFF9EA"/>
<path d="M209.625 134.503C208.758 134.503 207.878 134.468 207.008 134.4C206.509 134.361 206.135 133.924 206.174 133.425C206.214 132.925 206.65 132.553 207.149 132.592C207.973 132.656 208.805 132.689 209.624 132.689C210.28 132.689 210.943 132.668 211.594 132.627C211.679 132.621 211.763 132.616 211.847 132.61C212.345 132.572 212.781 132.95 212.817 133.45C212.852 133.95 212.476 134.384 211.977 134.419C211.888 134.426 211.798 134.431 211.709 134.438C211.02 134.482 210.319 134.504 209.624 134.504L209.625 134.503ZM216.697 133.734C216.278 133.734 215.902 133.443 215.811 133.016C215.707 132.526 216.019 132.044 216.509 131.939C218.023 131.615 219.553 131.186 221.057 130.662C221.53 130.497 222.047 130.747 222.212 131.22C222.376 131.693 222.126 132.21 221.654 132.375C220.081 132.923 218.477 133.374 216.889 133.713C216.825 133.727 216.762 133.733 216.699 133.733L216.697 133.734ZM202.301 133.677C202.235 133.677 202.168 133.67 202.101 133.655C201.178 133.447 200.244 133.197 199.325 132.911C198.846 132.764 198.578 132.255 198.726 131.777C198.874 131.298 199.382 131.03 199.861 131.178C200.735 131.449 201.623 131.687 202.5 131.885C202.988 131.995 203.295 132.48 203.185 132.969C203.09 133.391 202.715 133.677 202.301 133.677ZM225.821 130.564C225.485 130.564 225.163 130.377 225.005 130.055C224.785 129.605 224.972 129.062 225.422 128.842C226.846 128.147 228.23 127.364 229.535 126.516C229.955 126.243 230.516 126.362 230.79 126.782C231.063 127.202 230.944 127.764 230.524 128.037C229.158 128.925 227.709 129.744 226.219 130.473C226.091 130.535 225.955 130.564 225.821 130.564ZM233.904 125.291C233.648 125.291 233.395 125.183 233.215 124.975C232.888 124.594 232.931 124.022 233.312 123.695C234.533 122.647 235.651 121.532 236.635 120.38C236.96 119.999 237.533 119.953 237.914 120.28C238.295 120.605 238.34 121.177 238.014 121.559C236.97 122.781 235.786 123.964 234.494 125.072C234.323 125.219 234.112 125.291 233.904 125.291ZM240.116 117.935C239.963 117.935 239.809 117.897 239.666 117.816C239.232 117.568 239.08 117.014 239.328 116.578C239.478 116.316 239.621 116.052 239.759 115.787C239.468 115.721 239.215 115.511 239.107 115.209C238.938 114.737 239.182 114.218 239.654 114.048C240.016 113.919 240.375 113.781 240.719 113.641C240.882 113.208 241.029 112.775 241.158 112.34C241.3 111.859 241.805 111.585 242.285 111.728C242.68 111.845 242.934 112.205 242.935 112.596C243.247 112.427 243.555 112.25 243.859 112.065C244.287 111.805 244.845 111.94 245.105 112.368C245.365 112.797 245.23 113.354 244.802 113.614C243.938 114.14 243.037 114.611 242.123 115.016C241.773 115.847 241.366 116.669 240.904 117.477C240.737 117.77 240.431 117.934 240.116 117.934V117.935ZM231.596 117.402C231.197 117.402 230.8 117.389 230.414 117.365C229.915 117.333 229.536 116.901 229.568 116.401C229.6 115.901 230.034 115.521 230.532 115.554C231.956 115.647 233.509 115.548 235.134 115.262C235.627 115.176 236.098 115.505 236.185 115.998C236.271 116.492 235.942 116.962 235.448 117.049C234.115 117.283 232.819 117.402 231.596 117.402ZM225.796 116.244C225.67 116.244 225.541 116.217 225.419 116.161C224.331 115.664 223.331 115.01 222.446 114.22C222.041 113.858 221.65 113.458 221.282 113.031C220.956 112.651 220.998 112.078 221.378 111.752C221.758 111.425 222.331 111.468 222.658 111.848C222.973 112.215 223.309 112.558 223.655 112.867C224.404 113.536 225.251 114.09 226.174 114.511C226.629 114.72 226.83 115.258 226.621 115.713C226.469 116.047 226.14 116.244 225.796 116.244ZM248.174 110.826C247.932 110.826 247.689 110.729 247.511 110.538C247.169 110.171 247.189 109.598 247.556 109.256C248.676 108.212 249.717 107.039 250.651 105.77C250.948 105.367 251.515 105.28 251.919 105.577C252.322 105.874 252.409 106.442 252.112 106.845C251.112 108.205 249.995 109.464 248.793 110.584C248.618 110.746 248.396 110.827 248.174 110.827V110.826ZM219.569 109.179C219.193 109.179 218.841 108.943 218.712 108.568C218.265 107.276 218.038 105.972 218.038 104.694C218.038 104.258 218.065 103.82 218.119 103.395C218.181 102.898 218.634 102.546 219.132 102.608C219.629 102.671 219.981 103.124 219.918 103.621C219.874 103.972 219.852 104.333 219.852 104.694C219.852 105.77 220.045 106.874 220.426 107.975C220.59 108.448 220.339 108.965 219.866 109.128C219.768 109.162 219.667 109.179 219.569 109.179ZM242.783 108.746C242.774 108.746 242.766 108.746 242.757 108.746C242.256 108.732 241.861 108.315 241.875 107.814C241.879 107.634 241.882 107.448 241.882 107.263C241.882 105.91 241.747 104.505 241.492 103.199C241.396 102.707 241.717 102.23 242.208 102.135C242.699 102.038 243.176 102.359 243.272 102.851C243.55 104.269 243.696 105.794 243.696 107.262C243.696 107.464 243.693 107.667 243.688 107.864C243.674 108.356 243.271 108.746 242.782 108.746H242.783ZM253.89 103.084C253.755 103.084 253.618 103.054 253.488 102.99C253.039 102.768 252.855 102.224 253.078 101.776C253.77 100.376 254.343 98.9112 254.782 97.4216C254.924 96.941 255.427 96.6662 255.909 96.8077C256.39 96.9493 256.664 97.4538 256.523 97.9344C256.054 99.5232 255.442 101.086 254.704 102.58C254.546 102.899 254.224 103.085 253.89 103.085V103.084ZM220.757 99.9487C220.582 99.9487 220.405 99.8982 220.249 99.7925C219.835 99.5113 219.726 98.9471 220.007 98.5326C220.948 97.145 222.172 95.9228 223.646 94.8991C224.058 94.6133 224.623 94.7153 224.909 95.1261C225.195 95.5378 225.093 96.1029 224.682 96.3887C223.392 97.2847 222.325 98.3488 221.51 99.5508C221.334 99.809 221.049 99.9487 220.758 99.9487H220.757ZM240.843 99.3615C240.515 99.3615 240.199 99.1832 240.037 98.8726C239.294 97.4437 238.356 96.3088 237.246 95.5001C236.841 95.2051 236.752 94.6372 237.047 94.2329C237.342 93.8276 237.91 93.7394 238.315 94.0344C239.653 95.0103 240.774 96.3565 241.647 98.0373C241.877 98.4821 241.705 99.0298 241.26 99.2604C241.127 99.3294 240.983 99.3624 240.843 99.3624V99.3615ZM228.515 94.481C228.121 94.481 227.758 94.2218 227.644 93.8248C227.505 93.3433 227.784 92.8406 228.264 92.7019C229.567 92.327 230.874 92.1367 232.148 92.1367C232.568 92.1367 232.988 92.1579 233.394 92.2001C233.892 92.2516 234.255 92.6973 234.203 93.1954C234.152 93.6934 233.706 94.0564 233.208 94.0049C232.863 93.9691 232.506 93.9517 232.148 93.9517C231.044 93.9517 229.906 94.118 228.766 94.446C228.682 94.4699 228.598 94.4819 228.514 94.4819L228.515 94.481ZM256.601 93.8478C256.569 93.8478 256.537 93.846 256.504 93.8432C256.006 93.7908 255.645 93.3442 255.698 92.8462C255.787 91.9952 255.833 91.1286 255.833 90.2694C255.833 89.5793 255.803 88.879 255.745 88.1871C255.704 87.6881 256.074 87.2497 256.574 87.2075C257.075 87.1661 257.512 87.5365 257.554 88.0364C257.615 88.778 257.648 89.5297 257.648 90.2703C257.648 91.193 257.599 92.1239 257.502 93.0373C257.454 93.5032 257.059 93.8496 256.602 93.8496L256.601 93.8478ZM255.812 84.2604C255.412 84.2604 255.046 83.9939 254.937 83.5896C254.534 82.1009 253.995 80.6223 253.333 79.1951C253.123 78.7403 253.32 78.2018 253.774 77.9904C254.228 77.78 254.768 77.9766 254.979 78.4315C255.684 79.9524 256.259 81.5284 256.688 83.1163C256.819 83.5997 256.533 84.0977 256.049 84.2282C255.97 84.2494 255.89 84.2595 255.812 84.2595V84.2604ZM251.773 75.5157C251.482 75.5157 251.197 75.376 251.021 75.1178C250.151 73.834 249.167 72.5989 248.094 71.4466C247.753 71.0799 247.773 70.5056 248.14 70.1646C248.507 69.8237 249.081 69.8439 249.422 70.2106C250.558 71.4309 251.601 72.7395 252.523 74.0996C252.804 74.514 252.695 75.0783 252.281 75.3595C252.125 75.4651 251.948 75.5157 251.773 75.5157ZM245.209 68.4508C245.01 68.4508 244.811 68.3864 244.644 68.2532C243.427 67.2828 242.122 66.3877 240.765 65.5928C240.332 65.3401 240.187 64.7842 240.44 64.3513C240.693 63.9194 241.249 63.7733 241.682 64.0269C243.113 64.865 244.491 65.8097 245.775 66.8343C246.166 67.1468 246.231 67.7175 245.918 68.1089C245.739 68.3332 245.475 68.4508 245.209 68.4508Z" fill="#FBD975"/>
<g style="mix-blend-mode:multiply">
<path d="M107.895 171.9L18.3291 183.091C16.1438 183.364 14.1322 181.799 13.8593 179.613L0.0309151 68.9378C-0.242013 66.7525 1.32296 64.7409 3.50823 64.468L93.0737 53.277C95.259 53.0041 97.2706 54.5691 97.5435 56.7543L111.372 167.43C111.645 169.615 110.08 171.627 107.895 171.9Z" fill="#EEEEEE"/>
</g>
<path d="M112.781 166.283L23.2158 177.474C21.0305 177.746 19.0189 176.182 18.746 173.996L4.91763 63.3206C4.64471 61.1353 6.20968 59.1237 8.39494 58.8508L97.9604 47.6598C100.146 47.3869 102.157 48.9519 102.43 51.1371L116.259 161.813C116.532 163.998 114.967 166.01 112.781 166.283Z" fill="#8665CC"/>
<path d="M111.604 161.543L23.1927 172.59C22.758 172.644 22.3583 172.332 22.304 171.899L8.36357 60.3243C8.30935 59.8896 8.61996 59.4899 9.05462 59.4357L97.4659 48.389C97.9006 48.3347 98.3003 48.6453 98.3546 49.08L112.295 160.654C112.349 161.089 112.038 161.489 111.604 161.543Z" fill="white"/>
<path d="M23.7647 80.6845L17.9009 81.4169C17.1832 81.507 16.5261 80.996 16.436 80.2783L15.7036 74.4145C15.6136 73.6968 16.1254 73.0398 16.8431 72.9497L22.707 72.2173C23.4247 72.1273 24.0817 72.6391 24.1708 73.3568L24.9033 79.2206C24.9933 79.9383 24.4824 80.5954 23.7647 80.6845ZM16.9791 74.0433C16.8643 74.058 16.7825 74.1627 16.7972 74.2776L17.5296 80.1414C17.5443 80.2563 17.6491 80.3381 17.7639 80.3234L23.6278 79.591C23.7426 79.5763 23.8244 79.4715 23.8097 79.3566L23.0773 73.4928C23.0626 73.3779 22.9578 73.2962 22.843 73.3109L16.9791 74.0433Z" fill="#EEEEEE"/>
<path d="M25.6299 95.6259L19.7661 96.3583C19.0484 96.4484 18.3913 95.9375 18.3013 95.2198L17.5689 89.3559C17.4788 88.6382 17.9907 87.9812 18.7084 87.8911L24.5722 87.1587C25.2899 87.0687 25.9469 87.5805 26.0361 88.2982L26.7685 94.162C26.8585 94.8797 26.3476 95.5368 25.6299 95.6259ZM18.8444 88.9847C18.7295 88.9994 18.6477 89.1041 18.6624 89.219L19.3948 95.0828C19.4095 95.1977 19.5143 95.2795 19.6292 95.2648L25.493 94.5324C25.6078 94.5177 25.6896 94.4129 25.6749 94.298L24.9425 88.4342C24.9278 88.3194 24.8231 88.2376 24.7082 88.2523L18.8444 88.9847Z" fill="#EEEEEE"/>
<path d="M27.4971 110.567L21.6333 111.3C20.9156 111.39 20.2585 110.879 20.1685 110.161L19.4361 104.297C19.346 103.58 19.8579 102.923 20.5756 102.833L26.4394 102.1C27.1571 102.01 27.8141 102.522 27.9033 103.24L28.6357 109.103C28.7257 109.821 28.2148 110.478 27.4971 110.567ZM20.7116 103.926C20.5967 103.941 20.5149 104.046 20.5296 104.16L21.262 110.024C21.2767 110.139 21.3815 110.221 21.4963 110.206L27.3602 109.474C27.475 109.459 27.5568 109.354 27.5421 109.239L26.8097 103.376C26.795 103.261 26.6903 103.179 26.5754 103.194L20.7116 103.926Z" fill="#EEEEEE"/>
<path d="M29.3623 125.505L23.4985 126.237C22.7808 126.327 22.1238 125.816 22.0337 125.099L21.3013 119.235C21.2112 118.517 21.7231 117.86 22.4408 117.77L28.3046 117.038C29.0223 116.948 29.6794 117.459 29.7685 118.177L30.5009 124.041C30.591 124.759 30.08 125.416 29.3623 125.505ZM22.5768 118.864C22.4619 118.878 22.3801 118.983 22.3948 119.098L23.1272 124.962C23.142 125.077 23.2467 125.158 23.3616 125.144L29.2254 124.411C29.3403 124.397 29.4221 124.292 29.4074 124.177L28.675 118.313C28.6602 118.198 28.5555 118.116 28.4406 118.131L22.5768 118.864Z" fill="#EEEEEE"/>
<path d="M25.4899 72.4318L25.4623 72.4447C25.1269 72.6027 24.82 72.7838 24.5287 72.9758L24.0968 73.269L23.6924 73.5833C23.1576 74.006 22.6614 74.4581 22.2056 74.9424C21.7268 75.4083 21.316 75.9275 20.9071 76.4486C20.6801 76.7417 20.4669 77.0468 20.2611 77.3565C20.0653 77.2591 19.865 77.1663 19.6592 77.0808C19.3807 76.9503 19.0784 76.8501 18.7825 76.7426C18.4783 76.6452 18.1695 76.5533 17.8378 76.4917L17.8075 76.4862C17.7854 76.4826 17.7624 76.4899 17.7468 76.5083C17.7248 76.5349 17.7284 76.5754 17.7551 76.5974C18.6814 77.3611 19.6233 78.1045 20.5662 78.847C20.6176 78.8865 20.6921 78.8773 20.7307 78.8268C21.555 77.7911 22.3719 76.75 23.1714 75.6941L24.378 74.1172C24.7842 73.5943 25.1701 73.0567 25.5671 72.5274C25.5809 72.509 25.5836 72.4842 25.5735 72.4622C25.5588 72.43 25.5211 72.4171 25.489 72.4318H25.4899Z" fill="#36B37E"/>
<path d="M29.1969 102.1L29.1694 102.113C28.8339 102.271 28.527 102.452 28.2357 102.644L27.8038 102.937L27.3995 103.251C26.8646 103.674 26.3684 104.126 25.9126 104.61C25.4338 105.076 25.0231 105.595 24.6141 106.117C24.3871 106.41 24.1739 106.715 23.9681 107.024C23.7724 106.927 23.572 106.834 23.3662 106.749C23.0877 106.618 22.7854 106.518 22.4895 106.411C22.1853 106.313 21.8766 106.221 21.5448 106.16L21.5145 106.154C21.4925 106.151 21.4695 106.158 21.4539 106.176C21.4318 106.203 21.4355 106.243 21.4621 106.265C22.3884 107.029 23.3304 107.772 24.2732 108.515C24.3247 108.555 24.3991 108.545 24.4377 108.495C25.262 107.459 26.0789 106.418 26.8784 105.362L28.085 103.785C28.4912 103.262 28.8771 102.725 29.2741 102.195C29.2879 102.177 29.2907 102.152 29.2806 102.13C29.2659 102.098 29.2282 102.085 29.196 102.1H29.1969Z" fill="#36B37E"/>
<path d="M31.0641 117.037L31.0366 117.05C30.7011 117.208 30.3942 117.389 30.1029 117.581L29.671 117.874L29.2667 118.189C28.7318 118.611 28.2356 119.064 27.7798 119.548C27.301 120.014 26.8902 120.533 26.4813 121.054C26.2543 121.347 26.0411 121.652 25.8353 121.962C25.6396 121.865 25.4392 121.772 25.2334 121.686C24.9549 121.556 24.6526 121.456 24.3567 121.348C24.0525 121.251 23.7438 121.159 23.412 121.097L23.3817 121.092C23.3596 121.088 23.3367 121.095 23.321 121.114C23.299 121.14 23.3027 121.181 23.3293 121.203C24.2556 121.967 25.1975 122.71 26.1404 123.452C26.1918 123.492 26.2663 123.483 26.3049 123.432C27.1292 122.397 27.9461 121.355 28.7456 120.3L29.9522 118.723C30.3584 118.2 30.7443 117.662 31.1413 117.133C31.1551 117.114 31.1579 117.09 31.1477 117.068C31.133 117.035 31.0954 117.023 31.0632 117.037H31.0641Z" fill="#36B37E"/>
<path d="M93.1235 66.684L32.6474 74.2396C31.6393 74.3655 30.7204 73.6505 30.5945 72.6424C30.4686 71.6344 31.1835 70.7154 32.1916 70.5895L92.6677 63.0339C93.6758 62.908 94.5948 63.6229 94.7206 64.631C94.8465 65.6391 94.1316 66.5581 93.1235 66.684Z" fill="#EEEEEE"/>
<path d="M93.8345 72.3754L33.3583 79.931C32.3502 80.0569 31.4313 79.342 31.3054 78.3339C31.1795 77.3258 31.8944 76.4068 32.9025 76.2809L93.3787 68.7253C94.3867 68.5994 95.3057 69.3144 95.4316 70.3225C95.5575 71.3305 94.8425 72.2495 93.8345 72.3754Z" fill="#EEEEEE"/>
<path d="M94.9907 81.6254L34.5146 89.181C33.5065 89.3069 32.5875 88.592 32.4616 87.5839C32.3357 86.5758 33.0507 85.6568 34.0588 85.5309L94.5349 77.9753C95.543 77.8494 96.462 78.5644 96.5879 79.5725C96.7137 80.5805 95.9988 81.4995 94.9907 81.6254Z" fill="#EEEEEE"/>
<path d="M95.7017 87.3168L35.2255 94.8724C34.2174 94.9983 33.2985 94.2834 33.1726 93.2753C33.0467 92.2672 33.7616 91.3482 34.7697 91.2223L95.2459 83.6667C96.2539 83.5408 97.1729 84.2558 97.2988 85.2639C97.4247 86.2719 96.7097 87.1909 95.7017 87.3168Z" fill="#EEEEEE"/>
<path d="M96.8559 96.5629L36.3798 104.119C35.3717 104.244 34.4528 103.529 34.3269 102.521C34.201 101.513 34.9159 100.594 35.924 100.468L96.4001 92.9128C97.4082 92.7869 98.3272 93.5019 98.4531 94.51C98.579 95.518 97.864 96.437 96.8559 96.5629Z" fill="#EEEEEE"/>
<path d="M97.5669 102.254L37.0907 109.81C36.0827 109.936 35.1637 109.221 35.0378 108.213C34.9119 107.205 35.6269 106.286 36.635 106.16L97.1111 98.6042C98.1192 98.4783 99.0381 99.1933 99.164 100.201C99.2899 101.209 98.575 102.128 97.5669 102.254Z" fill="#EEEEEE"/>
<path d="M98.7231 111.5L38.247 119.056C37.2389 119.182 36.32 118.467 36.1941 117.459C36.0682 116.451 36.7831 115.532 37.7912 115.406L98.2673 107.85C99.2754 107.724 100.194 108.439 100.32 109.447C100.446 110.456 99.7312 111.374 98.7231 111.5Z" fill="#EEEEEE"/>
<path d="M99.4341 117.196L38.9579 124.751C37.9499 124.877 37.0309 124.162 36.905 123.154C36.7791 122.146 37.494 121.227 38.5021 121.101L98.9783 113.546C99.9864 113.42 100.905 114.135 101.031 115.143C101.157 116.151 100.442 117.07 99.4341 117.196Z" fill="#EEEEEE"/>
<path d="M33.1553 155.864L27.2915 156.597C26.5738 156.687 25.9167 156.176 25.8267 155.458L25.0943 149.594C25.0042 148.876 25.5161 148.219 26.2338 148.129L32.0976 147.397C32.8153 147.307 33.4723 147.819 33.5615 148.536L34.2939 154.4C34.3839 155.118 33.873 155.775 33.1553 155.864ZM26.3698 149.223C26.2549 149.238 26.1731 149.342 26.1878 149.457L26.9202 155.321C26.9349 155.436 27.0397 155.518 27.1545 155.503L33.0184 154.771C33.1332 154.756 33.215 154.651 33.2003 154.536L32.4679 148.672C32.4532 148.558 32.3485 148.476 32.2336 148.491L26.3698 149.223Z" fill="#EEEEEE"/>
<path d="M34.8571 147.397L34.8295 147.41C34.4941 147.568 34.1872 147.749 33.8959 147.941L33.464 148.234L33.0596 148.548C32.5248 148.971 32.0286 149.423 31.5728 149.907C31.094 150.373 30.6832 150.892 30.2743 151.413C30.0473 151.707 29.8341 152.012 29.6283 152.321C29.4325 152.224 29.2322 152.131 29.0263 152.046C28.7479 151.915 28.4456 151.815 28.1497 151.707C27.8455 151.61 27.5367 151.518 27.205 151.457L27.1747 151.451C27.1526 151.447 27.1296 151.455 27.114 151.473C27.092 151.5 27.0956 151.54 27.1223 151.562C28.0486 152.326 28.9905 153.069 29.9334 153.812C29.9848 153.851 30.0592 153.842 30.0978 153.792C30.9221 152.756 31.7391 151.715 32.5386 150.659L33.7452 149.082C34.1513 148.559 34.5373 148.022 34.9343 147.492C34.9481 147.474 34.9508 147.449 34.9407 147.427C34.926 147.395 34.8883 147.382 34.8562 147.397H34.8571Z" fill="#36B37E"/>
<path d="M102.516 141.86L42.04 149.415C41.0319 149.541 40.1129 148.826 39.987 147.818C39.8611 146.81 40.5761 145.891 41.5842 145.765L102.06 138.21C103.068 138.084 103.987 138.799 104.113 139.807C104.239 140.815 103.524 141.734 102.516 141.86Z" fill="#EEEEEE"/>
<path d="M103.227 147.551L42.7509 155.107C41.7428 155.233 40.8239 154.518 40.698 153.51C40.5721 152.502 41.287 151.583 42.2951 151.457L102.771 143.901C103.779 143.775 104.698 144.49 104.824 145.498C104.95 146.506 104.235 147.425 103.227 147.551Z" fill="#EEEEEE"/>
<path d="M31.2842 140.884L25.4204 141.616C24.7027 141.706 24.0456 141.195 23.9556 140.478L23.2232 134.614C23.1331 133.896 23.645 133.239 24.3627 133.149L30.2265 132.417C30.9442 132.326 31.6012 132.838 31.6904 133.556L32.4228 139.42C32.5128 140.138 32.0019 140.795 31.2842 140.884ZM24.4987 134.242C24.3838 134.257 24.302 134.362 24.3167 134.477L25.0491 140.341C25.0638 140.456 25.1686 140.537 25.2835 140.523L31.1473 139.79C31.2621 139.775 31.3439 139.671 31.3292 139.556L30.5968 133.692C30.5821 133.577 30.4774 133.495 30.3625 133.51L24.4987 134.242Z" fill="#EEEEEE"/>
<path d="M100.645 126.879L40.1689 134.435C39.1608 134.561 38.2418 133.846 38.1159 132.838C37.99 131.83 38.705 130.911 39.7131 130.785L100.189 123.229C101.197 123.103 102.116 123.818 102.242 124.826C102.368 125.834 101.653 126.753 100.645 126.879Z" fill="#EEEEEE"/>
<path d="M101.356 132.575L40.8798 140.13C39.8717 140.256 38.9528 139.541 38.8269 138.533C38.701 137.525 39.4159 136.606 40.424 136.48L100.9 128.925C101.908 128.799 102.827 129.514 102.953 130.522C103.079 131.53 102.364 132.449 101.356 132.575Z" fill="#EEEEEE"/>
<path d="M106.554 155.12L26.5071 165.121C26.2093 165.159 25.9346 164.944 25.8969 164.647C25.8592 164.349 26.0733 164.074 26.3711 164.036L106.418 154.036C106.716 153.998 106.991 154.212 107.028 154.51C107.066 154.807 106.852 155.082 106.554 155.12Z" fill="#00875A"/>
<path d="M15.9197 62.8599C16.3027 62.1588 16.0449 61.28 15.3438 60.897C14.6428 60.514 13.764 60.7718 13.381 61.4728C12.998 62.1739 13.2558 63.0527 13.9568 63.4357C14.6579 63.8187 15.5367 63.5609 15.9197 62.8599Z" fill="#333333"/>
<path d="M14.7183 62.7208C14.1899 62.7869 13.7038 62.4083 13.6376 61.8799L12.7849 55.053C12.7187 54.5246 13.0973 54.0385 13.6257 53.9724C14.1541 53.9062 14.6402 54.2848 14.7064 54.8132L15.5592 61.6401C15.6253 62.1685 15.2467 62.6546 14.7183 62.7208Z" fill="#474747"/>
<path d="M22.2748 62.2912C22.78 61.6724 22.6879 60.7612 22.0691 60.256C21.4503 59.7507 20.5391 59.8428 20.0339 60.4616C19.5287 61.0804 19.6208 61.9916 20.2396 62.4968C20.8584 63.002 21.7695 62.9099 22.2748 62.2912Z" fill="#333333"/>
<path d="M21.2242 61.9044C20.6958 61.9705 20.2097 61.5919 20.1435 61.0635L19.2907 54.2366C19.2245 53.7082 19.6032 53.2221 20.1315 53.1559C20.6599 53.0898 21.1461 53.4684 21.2122 53.9968L22.065 60.8237C22.1312 61.3521 21.7526 61.8382 21.2242 61.9044Z" fill="#474747"/>
<path d="M28.2857 61.8512C29.0066 61.5071 29.3122 60.6438 28.9681 59.9228C28.6241 59.2019 27.7608 58.8963 27.0398 59.2404C26.3188 59.5844 26.0133 60.4477 26.3573 61.1687C26.7013 61.8897 27.5647 62.1952 28.2857 61.8512Z" fill="#333333"/>
<path d="M27.7281 61.0919C27.1997 61.158 26.7136 60.7794 26.6474 60.251L25.7946 53.4241C25.7285 52.8957 26.1071 52.4096 26.6355 52.3434C27.1639 52.2773 27.65 52.6559 27.7161 53.1843L28.5689 60.0112C28.6351 60.5396 28.2565 61.0257 27.7281 61.0919Z" fill="#474747"/>
<path d="M35.6034 59.8927C35.6904 59.0986 35.1172 58.3844 34.3231 58.2974C33.529 58.2105 32.8147 58.7837 32.7278 59.5778C32.6408 60.3719 33.2141 61.0861 34.0081 61.1731C34.8022 61.2601 35.5165 60.6868 35.6034 59.8927Z" fill="#333333"/>
<path d="M34.2359 60.2794C33.7075 60.3455 33.2214 59.9669 33.1552 59.4385L32.3024 52.6116C32.2363 52.0832 32.6149 51.5971 33.1433 51.5309C33.6717 51.4648 34.1578 51.8434 34.224 52.3718L35.0767 59.1987C35.1429 59.7271 34.7643 60.2132 34.2359 60.2794Z" fill="#474747"/>
<path d="M41.6953 59.9486C42.2602 59.3837 42.2602 58.4679 41.6953 57.903C41.1304 57.3381 40.2146 57.3381 39.6497 57.903C39.0849 58.4679 39.0849 59.3837 39.6497 59.9486C40.2146 60.5134 41.1304 60.5134 41.6953 59.9486Z" fill="#333333"/>
<path d="M40.7398 59.4669C40.2114 59.533 39.7253 59.1544 39.6591 58.626L38.8063 51.7991C38.7402 51.2707 39.1188 50.7846 39.6472 50.7184C40.1756 50.6523 40.6617 51.0309 40.7279 51.5593L41.5806 58.3862C41.6468 58.9146 41.2682 59.4007 40.7398 59.4669Z" fill="#474747"/>
<path d="M48.1926 59.128C48.7631 58.5689 48.7724 57.6531 48.2133 57.0826C47.6542 56.512 46.7384 56.5027 46.1678 57.0618C45.5973 57.621 45.588 58.5367 46.1471 59.1073C46.7063 59.6779 47.622 59.6871 48.1926 59.128Z" fill="#333333"/>
<path d="M47.2457 58.6504C46.7173 58.7166 46.2311 58.338 46.165 57.8096L45.3122 50.9827C45.246 50.4543 45.6246 49.9682 46.153 49.902C46.6814 49.8359 47.1676 50.2145 47.2337 50.7429L48.0865 57.5698C48.1527 58.0982 47.7741 58.5843 47.2457 58.6504Z" fill="#474747"/>
<path d="M54.1189 58.6892C54.8797 58.4456 55.299 57.6315 55.0555 56.8706C54.8119 56.1098 53.9978 55.6905 53.2369 55.934C52.4761 56.1776 52.0568 56.9918 52.3003 57.7526C52.5439 58.5134 53.3581 58.9327 54.1189 58.6892Z" fill="#333333"/>
<path d="M53.7535 57.8419C53.2251 57.908 52.739 57.5294 52.6728 57.001L51.82 50.1741C51.7538 49.6457 52.1325 49.1596 52.6608 49.0934C53.1892 49.0273 53.6754 49.4059 53.7415 49.9343L54.5943 56.7612C54.6605 57.2896 54.2819 57.7757 53.7535 57.8419Z" fill="#474747"/>
<path d="M61.4565 57.1724C61.8412 56.4723 61.5855 55.5929 60.8855 55.2082C60.1854 54.8235 59.3059 55.0791 58.9212 55.7792C58.5365 56.4793 58.7921 57.3588 59.4922 57.7435C60.1923 58.1282 61.0718 57.8725 61.4565 57.1724Z" fill="#333333"/>
<path d="M60.2593 57.0254C59.7309 57.0916 59.2448 56.713 59.1787 56.1846L58.3259 49.3577C58.2597 48.8293 58.6383 48.3432 59.1667 48.277C59.6951 48.2109 60.1812 48.5895 60.2474 49.1179L61.1002 55.9448C61.1663 56.4732 60.7877 56.9593 60.2593 57.0254Z" fill="#474747"/>
<path d="M67.8355 56.5682C68.326 55.9376 68.2125 55.0289 67.582 54.5384C66.9514 54.0479 66.0427 54.1614 65.5522 54.7919C65.0617 55.4225 65.1752 56.3312 65.8057 56.8217C66.4362 57.3122 67.345 57.1987 67.8355 56.5682Z" fill="#333333"/>
<path d="M66.7613 56.2169C66.2329 56.283 65.7468 55.9044 65.6806 55.376L64.8278 48.5491C64.7617 48.0207 65.1403 47.5346 65.6687 47.4684C66.197 47.4023 66.6832 47.7809 66.7493 48.3093L67.6021 55.1362C67.6683 55.6646 67.2897 56.1507 66.7613 56.2169Z" fill="#474747"/>
<path d="M73.69 56.2338C74.4405 55.96 74.8269 55.1297 74.5532 54.3793C74.2795 53.6288 73.4492 53.2423 72.6987 53.5161C71.9482 53.7898 71.5618 54.6201 71.8355 55.3706C72.1092 56.121 72.9395 56.5075 73.69 56.2338Z" fill="#333333"/>
<path d="M73.2672 55.4044C72.7388 55.4705 72.2526 55.0919 72.1865 54.5635L71.3337 47.7366C71.2675 47.2082 71.6461 46.7221 72.1745 46.6559C72.7029 46.5898 73.189 46.9684 73.2552 47.4968L74.108 54.3237C74.1742 54.8521 73.7956 55.3382 73.2672 55.4044Z" fill="#474747"/>
<path d="M80.8472 54.9393C81.3377 54.3087 81.2242 53.4 80.5937 52.9095C79.9632 52.419 79.0544 52.5325 78.5639 53.163C78.0734 53.7935 78.1869 54.7023 78.8174 55.1928C79.448 55.6833 80.3567 55.5698 80.8472 54.9393Z" fill="#333333"/>
<path d="M79.7711 54.588C79.2427 54.6541 78.7565 54.2755 78.6904 53.7471L77.8376 46.9202C77.7714 46.3918 78.15 45.9057 78.6784 45.8395C79.2068 45.7734 79.693 46.152 79.7591 46.6804L80.6119 53.5073C80.6781 54.0357 80.2995 54.5218 79.7711 54.588Z" fill="#474747"/>
<path d="M86.3956 54.6703C87.1879 54.5689 87.7481 53.8444 87.6468 53.052C87.5454 52.2596 86.8209 51.6995 86.0285 51.8008C85.2361 51.9022 84.6759 52.6267 84.7773 53.4191C84.8787 54.2115 85.6032 54.7717 86.3956 54.6703Z" fill="#333333"/>
<path d="M86.2769 53.7794C85.7485 53.8455 85.2624 53.4669 85.1962 52.9385L84.3434 46.1116C84.2773 45.5832 84.6559 45.0971 85.1843 45.0309C85.7127 44.9648 86.1988 45.3434 86.265 45.8718L87.1178 52.6987C87.1839 53.2271 86.8053 53.7132 86.2769 53.7794Z" fill="#474747"/>
<path d="M93.2426 53.7671C93.9868 53.4768 94.3548 52.6381 94.0645 51.8939C93.7742 51.1497 92.9355 50.7817 92.1913 51.072C91.4471 51.3623 91.0791 52.201 91.3694 52.9452C91.6597 53.6894 92.4984 54.0574 93.2426 53.7671Z" fill="#333333"/>
<path d="M92.7847 52.9629C92.2563 53.0291 91.7702 52.6505 91.704 52.1221L90.8513 45.2952C90.7851 44.7668 91.1637 44.2807 91.6921 44.2145C92.2205 44.1484 92.7066 44.527 92.7728 45.0554L93.6256 51.8823C93.6917 52.4107 93.3131 52.8968 92.7847 52.9629Z" fill="#474747"/>
<g style="mix-blend-mode:multiply">
<path d="M192.05 43.6132L68.4613 30.576C66.7585 30.3959 65.2331 31.631 65.0539 33.3338L48.2692 192.45C48.09 194.152 49.3242 195.678 51.027 195.858L174.616 208.895C176.319 209.074 177.844 207.84 178.023 206.137L194.808 47.0207C194.987 45.3188 193.753 43.7924 192.05 43.6132Z" fill="#EEEEEE"/>
</g>
<path d="M182.124 202.703L58.5348 189.666C56.832 189.487 55.5979 187.96 55.7771 186.259L72.5617 27.1422C72.7409 25.4394 74.2673 24.2053 75.9692 24.3845L199.558 37.4216C201.261 37.6008 202.495 39.1272 202.316 40.8291L185.531 199.945C185.352 201.648 183.825 202.882 182.124 202.703Z" fill="white"/>
<path d="M101.105 62.4446L82.5176 60.4844L78.1883 101.537L96.7758 103.497L101.105 62.4446Z" fill="#E1D8F2"/>
<path d="M122.111 85.4133L103.523 83.4531L101.359 103.98L119.946 105.94L122.111 85.4133Z" fill="#E1F4FC"/>
<path d="M146.111 79.9875L127.523 78.0273L124.529 106.424L143.116 108.385L146.111 79.9875Z" fill="#F9DCCB"/>
<path d="M157.057 75.5303C157.881 75.1401 158.232 74.1559 157.842 73.3322C157.452 72.5084 156.468 72.157 155.644 72.5473C154.82 72.9375 154.469 73.9217 154.859 74.7454C155.249 75.5692 156.233 75.9206 157.057 75.5303Z" fill="#E1D8F2"/>
<path d="M185.089 78.7437L161.919 76.2993C161.017 76.2038 160.356 75.3877 160.45 74.4853C160.546 73.5829 161.362 72.9222 162.264 73.0168L185.435 75.4612C186.337 75.5568 186.998 76.3728 186.903 77.2753C186.808 78.1777 185.992 78.8384 185.089 78.7437Z" fill="#EEEEEE"/>
<path d="M184.463 84.6814L155.548 81.6314C154.645 81.5358 153.985 80.7198 154.079 79.8174C154.175 78.915 154.991 78.2542 155.893 78.3489L184.808 81.3989C185.711 81.4944 186.371 82.3105 186.277 83.2129C186.181 84.1153 185.365 84.776 184.463 84.6814Z" fill="#EEEEEE"/>
<path d="M155.922 89.2075C156.63 88.6341 156.74 87.5948 156.167 86.8863C155.593 86.1777 154.554 86.0681 153.845 86.6415C153.137 87.2149 153.027 88.2541 153.601 88.9627C154.174 89.6713 155.213 89.7808 155.922 89.2075Z" fill="#E1F4FC"/>
<path d="M183.624 92.6227L160.454 90.1782C159.552 90.0827 158.891 89.2666 158.986 88.3642C159.081 87.4618 159.897 86.8011 160.8 86.8957L183.97 89.3402C184.872 89.4357 185.533 90.2517 185.439 91.1542C185.343 92.0566 184.527 92.7173 183.624 92.6227Z" fill="#EEEEEE"/>
<path d="M183 98.5603L154.085 95.5103C153.183 95.4147 152.522 94.5987 152.616 93.6963C152.712 92.7938 153.528 92.1331 154.43 92.2278L183.345 95.2778C184.248 95.3733 184.908 96.1894 184.814 97.0918C184.718 97.9942 183.902 98.6549 183 98.5603Z" fill="#EEEEEE"/>
<path d="M155.05 102.053C155.183 101.151 154.56 100.312 153.658 100.179C152.757 100.046 151.918 100.669 151.784 101.57C151.651 102.472 152.274 103.311 153.176 103.445C154.077 103.578 154.916 102.955 155.05 102.053Z" fill="#F9DCCB"/>
<path d="M182.162 106.505L158.991 104.061C158.089 103.965 157.428 103.149 157.523 102.247C157.618 101.345 158.434 100.684 159.337 100.779L182.507 103.223C183.41 103.319 184.07 104.135 183.976 105.037C183.88 105.939 183.064 106.6 182.162 106.505Z" fill="#EEEEEE"/>
<path d="M181.535 112.443L152.62 109.393C151.718 109.298 151.057 108.481 151.152 107.579C151.247 106.677 152.063 106.016 152.966 106.111L181.88 109.161C182.783 109.256 183.444 110.072 183.349 110.975C183.253 111.877 182.437 112.538 181.535 112.443Z" fill="#EEEEEE"/>
<path d="M103.103 120.752L78.7708 118.185C77.4962 118.051 76.5635 116.898 76.6986 115.624C76.8327 114.35 77.986 113.417 79.2597 113.552L103.592 116.119C104.866 116.253 105.799 117.406 105.664 118.68C105.53 119.954 104.376 120.887 103.103 120.752Z" fill="#36B37E"/>
<path d="M177.908 140.354L77.5481 129.767C76.2735 129.633 75.3408 128.48 75.4759 127.206C75.6101 125.932 76.7633 124.999 78.037 125.134L178.396 135.72C179.671 135.855 180.604 137.008 180.469 138.282C180.335 139.556 179.181 140.489 177.908 140.354Z" fill="#EEEEEE"/>
<path d="M176.685 151.94L76.3255 141.353C75.0509 141.219 74.1182 140.066 74.2532 138.792C74.3874 137.518 75.5407 136.585 76.8144 136.72L177.174 147.306C178.448 147.441 179.381 148.594 179.246 149.867C179.112 151.142 177.959 152.075 176.685 151.94Z" fill="#EEEEEE"/>
<path d="M175.462 163.526L75.1028 152.939C73.8282 152.805 72.8955 151.652 73.0306 150.378C73.1648 149.104 74.318 148.171 75.5917 148.306L175.951 158.892C177.226 159.026 178.159 160.18 178.023 161.453C177.889 162.728 176.736 163.661 175.462 163.526Z" fill="#EEEEEE"/>
<path d="M162.415 173.861L73.8821 164.521C72.6075 164.387 71.6748 163.234 71.8099 161.96C71.944 160.686 73.0973 159.753 74.371 159.888L162.904 169.227C164.178 169.361 165.111 170.515 164.976 171.788C164.842 173.063 163.688 173.996 162.415 173.861Z" fill="#EEEEEE"/>
<path d="M112.841 45.5381L86.7239 42.7831C85.4493 42.6489 84.5166 41.4956 84.6517 40.222C84.7858 38.9474 85.9391 38.0146 87.2128 38.1497L113.33 40.9047C114.605 41.0389 115.538 42.1922 115.403 43.4659C115.268 44.7404 114.115 45.6732 112.841 45.5381Z" fill="#36B37E"/>
<path d="M186.013 63.5079L94.343 53.8378C93.0685 53.7036 92.1357 52.5503 92.2708 51.2766C92.405 50.0021 93.5583 49.0693 94.8319 49.2044L186.502 58.8745C187.776 59.0087 188.709 60.162 188.574 61.4356C188.44 62.7102 187.287 63.643 186.013 63.5079Z" fill="#EEEEEE"/>
<g style="mix-blend-mode:multiply" opacity="0.2">
<path d="M132.278 104.833C117.576 117.383 115.823 139.484 128.373 154.186C139.854 167.646 159.32 170.25 173.817 160.987L179.454 167.595L177.227 169.495L207.728 205.248C209.216 206.992 211.837 207.199 213.581 205.712L219.093 201.009C220.837 199.522 221.045 196.901 219.557 195.157L189.056 159.404L186.829 161.303L181.192 154.696C192.626 141.84 193.124 122.2 181.642 108.749C169.093 94.0362 146.992 92.2829 132.279 104.833H132.278ZM176.823 112.861C187.103 124.902 185.664 143.002 173.613 153.283C161.562 163.563 143.471 162.124 133.19 150.083C122.91 138.032 124.34 119.931 136.39 109.651C148.441 99.3707 166.542 100.81 176.822 112.861H176.823Z" fill="#3A7EC1"/>
</g>
<g style="mix-blend-mode:multiply" opacity="0.2">
<path d="M156.84 158.172C173.881 158.172 187.696 144.358 187.696 127.317C187.696 110.275 173.881 96.4609 156.84 96.4609C139.799 96.4609 125.984 110.275 125.984 127.317C125.984 144.358 139.799 158.172 156.84 158.172Z" fill="#C2B2E5"/>
</g>
<path opacity="0.6" d="M179.639 131.238C179.576 131.24 179.511 131.238 179.447 131.23C178.69 131.147 178.143 130.466 178.227 129.708C178.288 129.152 178.329 128.591 178.348 128.021C178.737 116.163 169.404 106.2 157.546 105.811C155.603 105.745 153.664 105.942 151.791 106.395C151.05 106.569 150.304 106.116 150.127 105.375C149.948 104.635 150.403 103.89 151.144 103.711C153.258 103.204 155.44 102.978 157.637 103.053C171.016 103.492 181.545 114.734 181.106 128.112C181.084 128.752 181.039 129.384 180.971 130.01C180.894 130.704 180.316 131.219 179.639 131.238Z" fill="white"/>
<path d="M181.479 148.717L174.105 155.008L182.511 164.86L189.885 158.569L181.479 148.717Z" fill="#4C4C4C"/>
<path d="M134.114 100.681C119.412 113.231 117.659 135.332 130.209 150.034C142.758 164.746 164.85 166.499 179.562 153.949C194.274 141.4 196.028 119.299 183.478 104.596C170.928 89.8839 148.828 88.1305 134.115 100.681H134.114ZM178.659 108.709C188.939 120.75 187.5 138.85 175.449 149.13C163.398 159.411 145.307 157.972 135.026 145.931C124.746 133.88 126.176 115.779 138.226 105.499C150.277 95.2184 168.377 96.6575 178.658 108.709H178.659Z" fill="#5E5E5E"/>
<path d="M220.928 196.855L215.416 201.558C213.672 203.046 211.052 202.838 209.563 201.094L179.062 165.341L190.891 155.25L221.392 191.003C222.88 192.747 222.672 195.367 220.928 196.855Z" fill="#5E5E5E"/>
<g style="mix-blend-mode:multiply">
<path d="M241.003 77.5357C249.487 69.0526 249.487 55.2989 241.003 46.8159C232.52 38.3329 218.767 38.3329 210.284 46.8159C201.801 55.2989 201.801 69.0526 210.284 77.5357C218.767 86.0187 232.52 86.0187 241.003 77.5357Z" fill="#EEEEEE"/>
</g>
<path d="M228.837 79.0224C240.834 79.0224 250.56 69.2971 250.56 57.3003C250.56 45.3035 240.834 35.5781 228.837 35.5781C216.841 35.5781 207.115 45.3035 207.115 57.3003C207.115 69.2971 216.841 79.0224 228.837 79.0224Z" fill="url(#paint0_linear_2342_793)"/>
<path d="M227.202 64.6132L231.096 68.0436C231.978 68.8211 233.368 68.2495 233.448 67.076L233.803 61.8995C233.835 61.4336 234.094 61.0137 234.496 60.7757L238.961 58.1328C239.973 57.5336 239.859 56.0348 238.768 55.5965L233.955 53.6593C233.522 53.4847 233.202 53.1089 233.1 52.6531L231.966 47.5897C231.71 46.4428 230.248 46.0881 229.494 46.9896L226.165 50.9696C225.865 51.3279 225.408 51.5154 224.943 51.4713L219.777 50.9843C218.606 50.874 217.818 52.1541 218.443 53.1493L221.199 57.5456C221.447 57.9407 221.484 58.4333 221.299 58.8615L219.239 63.6244C218.773 64.7033 219.746 65.8492 220.886 65.5634L225.919 64.3008C226.372 64.1868 226.852 64.3035 227.202 64.6123V64.6132Z" fill="white"/>
<defs>
<linearGradient id="paint0_linear_2342_793" x1="207" y1="35.3398" x2="243.5" y2="79.3398" gradientUnits="userSpaceOnUse">
<stop stop-color="#EDC245"/>
<stop offset="1" stop-color="#F9D897"/>
</linearGradient>
</defs>
</svg>
